ISO-10303-21;
HEADER;
FILE_DESCRIPTION (( 'STEP AP214' ),
    '1' );
FILE_NAME ('Pièce support pq mouton.STEP',
    '2023-07-25T11:48:48',
    ( '' ),
    ( '' ),
    'SwSTEP 2.0',
    'SolidWorks 2019',
    '' );
FILE_SCHEMA (( 'AUTOMOTIVE_DESIGN' ));
ENDSEC;

DATA;
#1 = ADVANCED_FACE ( 'NONE', ( #275 ), #188, .T. ) ;
#2 = CARTESIAN_POINT ( 'NONE',  ( 44.48960706607400084, 13.90631402090130919, 100.0000000000000000 ) ) ;
#3 = AXIS2_PLACEMENT_3D ( 'NONE', #83, #159, #266 ) ;
#4 = EDGE_LOOP ( 'NONE', ( #183, #534, #483, #55 ) ) ;
#5 = EDGE_CURVE ( 'NONE', #527, #103, #347, .T. ) ;
#6 = ORIENTED_EDGE ( 'NONE', *, *, #226, .T. ) ;
#7 = CARTESIAN_POINT ( 'NONE',  ( 52.38151748130906782, 10.96301519730906548, 96.85936526870540320 ) ) ;
#8 = ORIENTED_EDGE ( 'NONE', *, *, #444, .T. ) ;
#9 = EDGE_CURVE ( 'NONE', #400, #144, #437, .T. ) ;
#10 = DIRECTION ( 'NONE',  ( -1.000000000000000000, 0.000000000000000000, 0.000000000000000000 ) ) ;
#11 = ORIENTED_EDGE ( 'NONE', *, *, #361, .T. ) ;
#12 = DIRECTION ( 'NONE',  ( 1.000000000000000000, 0.000000000000000000, 0.000000000000000000 ) ) ;
#13 = EDGE_CURVE ( 'NONE', #366, #185, #402, .T. ) ;
#14 = CARTESIAN_POINT ( 'NONE',  ( 52.44973081827195927, 10.92437251636584961, 96.82065491356657105 ) ) ;
#15 = EDGE_LOOP ( 'NONE', ( #287 ) ) ;
#16 = DIRECTION ( 'NONE',  ( 1.000000000000000000, 0.000000000000000000, -0.000000000000000000 ) ) ;
#17 = AXIS2_PLACEMENT_3D ( 'NONE', #298, #313, #528 ) ;
#18 = ORIENTED_EDGE ( 'NONE', *, *, #496, .F. ) ;
#19 = CARTESIAN_POINT ( 'NONE',  ( 48.51320173634014310, 23.71643432915591987, 100.0000000000000000 ) ) ;
#20 = CARTESIAN_POINT ( 'NONE',  ( 52.62943946716863053, 10.79389747847740111, 96.69172355958974663 ) ) ;
#21 = ORIENTED_EDGE ( 'NONE', *, *, #228, .T. ) ;
#22 = CARTESIAN_POINT ( 'NONE',  ( 51.59422787059589410, 77.62846710440965126, 0.000000000000000000 ) ) ;
#23 = CARTESIAN_POINT ( 'NONE',  ( 0.000000000000000000, -59.29999999999999716, 100.0000000000000000 ) ) ;
#24 = CARTESIAN_POINT ( 'NONE',  ( 49.98379638849078077, 20.43618496703011900, 96.11212566918045752 ) ) ;
#25 = DIRECTION ( 'NONE',  ( -0.000000000000000000, -0.000000000000000000, -1.000000000000000000 ) ) ;
#26 = CIRCLE ( 'NONE', #334, 4.999999999999997335 ) ;
#27 = ADVANCED_FACE ( 'NONE', ( #147 ), #507, .F. ) ;
#28 = CARTESIAN_POINT ( 'NONE',  ( 63.64676217288449322, 71.90718290462930895, 100.0000000000000000 ) ) ;
#29 = MANIFOLD_SOLID_BREP ( 'Symétrie1', #452 ) ;
#30 = DIRECTION ( 'NONE',  ( 0.000000000000000000, -0.000000000000000000, -1.000000000000000000 ) ) ;
#31 = LINE ( 'NONE', #422, #54 ) ;
#32 = PRODUCT ( 'Pièce support pq mouton', 'Pièce support pq mouton', '', ( #82 ) ) ;
#33 = CARTESIAN_POINT ( 'NONE',  ( 48.67454607373214515, 20.04043219694331412, 100.0000000000000000 ) ) ;
#34 = FACE_OUTER_BOUND ( 'NONE', #91, .T. ) ;
#35 = DIRECTION ( 'NONE',  ( 0.000000000000000000, -0.000000000000000000, -1.000000000000000000 ) ) ;
#36 = DIRECTION ( 'NONE',  ( 0.000000000000000000, 0.000000000000000000, 1.000000000000000000 ) ) ;
#37 = CARTESIAN_POINT ( 'NONE',  ( 65.72661686996866592, 16.94652238786497378, 0.000000000000000000 ) ) ;
#38 = PRESENTATION_LAYER_ASSIGNMENT (  '', '', ( #269 ) ) ;
#39 = FACE_OUTER_BOUND ( 'NONE', #536, .T. ) ;
#40 = AXIS2_PLACEMENT_3D ( 'NONE', #414, #16, #151 ) ;
#41 = DIRECTION ( 'NONE',  ( -0.000000000000000000, -0.000000000000000000, -1.000000000000000000 ) ) ;
#42 = EDGE_CURVE ( 'NONE', #250, #338, #416, .T. ) ;
#43 = ORIENTED_EDGE ( 'NONE', *, *, #361, .F. ) ;
#44 = PRODUCT_DEFINITION_CONTEXT ( 'detailed design', #139, 'design' ) ;
#45 = EDGE_LOOP ( 'NONE', ( #154, #137, #297, #330 ) ) ;
#46 = ORIENTED_EDGE ( 'NONE', *, *, #341, .F. ) ;
#47 = DIRECTION ( 'NONE',  ( -0.000000000000000000, 0.000000000000000000, 1.000000000000000000 ) ) ;
#48 = ADVANCED_FACE ( 'NONE', ( #434 ), #469, .F. ) ;
#49 = DIRECTION ( 'NONE',  ( -1.000000000000000000, 0.000000000000000000, 0.000000000000000000 ) ) ;
#50 = ORIENTED_EDGE ( 'NONE', *, *, #468, .F. ) ;
#51 = AXIS2_PLACEMENT_3D ( 'NONE', #551, #281, #455 ) ;
#52 = CARTESIAN_POINT ( 'NONE',  ( 53.05678449554858389, 10.04876206270779804, 96.00000000000000000 ) ) ;
#53 = EDGE_LOOP ( 'NONE', ( #453, #6, #277, #61 ) ) ;
#54 = VECTOR ( 'NONE', #249, 1000.000000000000000 ) ;
#55 = ORIENTED_EDGE ( 'NONE', *, *, #351, .T. ) ;
#56 = CARTESIAN_POINT ( 'NONE',  ( 0.000000000000000000, 0.000000000000000000, 100.0000000000000000 ) ) ;
#57 =( NAMED_UNIT ( * ) PLANE_ANGLE_UNIT ( ) SI_UNIT ( $, .RADIAN. ) );
#58 = ORIENTED_EDGE ( 'NONE', *, *, #5, .T. ) ;
#59 = EDGE_CURVE ( 'NONE', #491, #491, #260, .T. ) ;
#60 = SURFACE_STYLE_USAGE ( .BOTH. , #292 ) ;
#61 = ORIENTED_EDGE ( 'NONE', *, *, #42, .T. ) ;
#62 = DIRECTION ( 'NONE',  ( 0.000000000000000000, -0.000000000000000000, -1.000000000000000000 ) ) ;
#63 = CARTESIAN_POINT ( 'NONE',  ( 52.78325839395897390, 10.64567652268032916, 96.54777133387592869 ) ) ;
#64 = ORIENTED_EDGE ( 'NONE', *, *, #265, .F. ) ;
#65 = FACE_OUTER_BOUND ( 'NONE', #4, .T. ) ;
#66 = VECTOR ( 'NONE', #218, 1000.000000000000000 ) ;
#67 = DIRECTION ( 'NONE',  ( -1.000000000000000000, 0.000000000000000000, 0.000000000000000000 ) ) ;
#68 = DIRECTION ( 'NONE',  ( 0.000000000000000000, 0.000000000000000000, 1.000000000000000000 ) ) ;
#69 = ADVANCED_FACE ( 'NONE', ( #263, #569 ), #349, .T. ) ;
#70 = CARTESIAN_POINT ( 'NONE',  ( 50.04253060509634565, 20.03582172299055841, 96.44205645422778161 ) ) ;
#71 =( NAMED_UNIT ( * ) SI_UNIT ( $, .STERADIAN. ) SOLID_ANGLE_UNIT ( ) );
#72 = DIRECTION ( 'NONE',  ( 1.000000000000000000, 0.000000000000000000, 0.000000000000000000 ) ) ;
#73 = FACE_BOUND ( 'NONE', #248, .T. ) ;
#74 = CIRCLE ( 'NONE', #231, 16.62235029203534964 ) ;
#75 = EDGE_CURVE ( 'NONE', #445, #544, #272, .T. ) ;
#76 = AXIS2_PLACEMENT_3D ( 'NONE', #395, #25, #557 ) ;
#77 = CARTESIAN_POINT ( 'NONE',  ( 48.67454607373214515, 20.04043219694331412, 97.00000000000000000 ) ) ;
#78 = VECTOR ( 'NONE', #339, 1000.000000000000000 ) ;
#79 = CARTESIAN_POINT ( 'NONE',  ( 51.59422787059589410, 77.62846710440965126, 100.0000000000000000 ) ) ;
#80 = CARTESIAN_POINT ( 'NONE',  ( 0.000000000000000000, 0.000000000000000000, 97.00000000000000000 ) ) ;
#81 = CARTESIAN_POINT ( 'NONE',  ( 0.000000000000000000, -59.29999999999999716, 0.000000000000000000 ) ) ;
#82 = PRODUCT_CONTEXT ( 'NONE', #571, 'mechanical' ) ;
#83 = CARTESIAN_POINT ( 'NONE',  ( 0.000000000000000000, 0.000000000000000000, 0.000000000000000000 ) ) ;
#84 = DIRECTION ( 'NONE',  ( -0.000000000000000000, 0.000000000000000000, 1.000000000000000000 ) ) ;
#85 = ORIENTED_EDGE ( 'NONE', *, *, #388, .F. ) ;
#86 = CARTESIAN_POINT ( 'NONE',  ( 0.000000000000000000, -59.29999999999999716, 100.0000000000000000 ) ) ;
#87 = AXIS2_PLACEMENT_3D ( 'NONE', #168, #315, #479 ) ;
#88 = ORIENTED_EDGE ( 'NONE', *, *, #265, .T. ) ;
#89 = PLANE ( 'NONE',  #429 ) ;
#90 = PRODUCT_RELATED_PRODUCT_CATEGORY ( 'part', '', ( #32 ) ) ;
#91 = EDGE_LOOP ( 'NONE', ( #113, #43, #46, #241, #93 ) ) ;
#92 = ORIENTED_EDGE ( 'NONE', *, *, #123, .F. ) ;
#93 = ORIENTED_EDGE ( 'NONE', *, *, #508, .T. ) ;
#94 = EDGE_CURVE ( 'NONE', #369, #270, #203, .T. ) ;
#95 = ORIENTED_EDGE ( 'NONE', *, *, #482, .T. ) ;
#96 = COLOUR_RGB ( '',0.7921568627450980005, 0.8196078431372548767, 0.9333333333333333481 ) ;
#97 = ORIENTED_EDGE ( 'NONE', *, *, #539, .T. ) ;
#98 = DIRECTION ( 'NONE',  ( 0.000000000000000000, -0.000000000000000000, -1.000000000000000000 ) ) ;
#99 = CYLINDRICAL_SURFACE ( 'NONE', #51, 53.99999999999999289 ) ;
#100 = ORIENTED_EDGE ( 'NONE', *, *, #496, .T. ) ;
#101 = ORIENTED_EDGE ( 'NONE', *, *, #539, .F. ) ;
#102 = DIRECTION ( 'NONE',  ( 0.000000000000000000, 0.000000000000000000, 1.000000000000000000 ) ) ;
#103 = VERTEX_POINT ( 'NONE', #259 ) ;
#104 = CYLINDRICAL_SURFACE ( 'NONE', #501, 54.00000000000000000 ) ;
#105 = CARTESIAN_POINT ( 'NONE',  ( 52.57334231626833798, 10.83993931080831175, 96.73696830865131346 ) ) ;
#106 = VERTEX_POINT ( 'NONE', #23 ) ;
#107 = AXIS2_PLACEMENT_3D ( 'NONE', #184, #98, #12 ) ;
#108 = CARTESIAN_POINT ( 'NONE',  ( 51.77668016566562414, 9.806314957238850383, 100.0000000000000000 ) ) ;
#109 = CARTESIAN_POINT ( 'NONE',  ( 66.30276774366633674, 16.12917902627365052, 100.0000000000000000 ) ) ;
#110 = CARTESIAN_POINT ( 'NONE',  ( 51.82281695255447573, 11.10835915435006171, 97.00000000000000000 ) ) ;
#111 = VERTEX_POINT ( 'NONE', #424 ) ;
#112 = CARTESIAN_POINT ( 'NONE',  ( 52.86490957927978229, 10.53476080023478545, 96.44222387973067612 ) ) ;
#113 = ORIENTED_EDGE ( 'NONE', *, *, #13, .T. ) ;
#114 = CARTESIAN_POINT ( 'NONE',  ( 0.000000000000000000, 0.000000000000000000, 96.00000000000000000 ) ) ;
#115 = EDGE_CURVE ( 'NONE', #270, #495, #352, .T. ) ;
#116 = PLANE ( 'NONE',  #331 ) ;
#117 = AXIS2_PLACEMENT_3D ( 'NONE', #493, #283, #541 ) ;
#118 = CARTESIAN_POINT ( 'NONE',  ( 46.98960706607400084, 13.90631402090130919, 97.00000000000000000 ) ) ;
#119 = PRODUCT_DEFINITION ( 'UNKNOWN', '', #548, #44 ) ;
#120 = PRODUCT_DEFINITION_SHAPE ( 'NONE', 'NONE',  #119 ) ;
#121 = DIRECTION ( 'NONE',  ( 0.000000000000000000, 0.000000000000000000, 1.000000000000000000 ) ) ;
#122 = DIRECTION ( 'NONE',  ( -1.000000000000000000, 0.000000000000000000, 0.000000000000000000 ) ) ;
#123 = EDGE_CURVE ( 'NONE', #278, #400, #167, .T. ) ;
#124 = DIRECTION ( 'NONE',  ( -0.000000000000000000, -0.000000000000000000, -1.000000000000000000 ) ) ;
#125 = FACE_OUTER_BOUND ( 'NONE', #321, .T. ) ;
#126 = CYLINDRICAL_SURFACE ( 'NONE', #134, 59.29999999999999716 ) ;
#127 = CARTESIAN_POINT ( 'NONE',  ( 9.919639073093561200E-15, -54.00000000000000000, 0.000000000000000000 ) ) ;
#128 =( NAMED_UNIT ( * ) SI_UNIT ( $, .STERADIAN. ) SOLID_ANGLE_UNIT ( ) );
#129 = DIRECTION ( 'NONE',  ( 0.000000000000000000, 0.000000000000000000, 1.000000000000000000 ) ) ;
#130 = FACE_OUTER_BOUND ( 'NONE', #365, .T. ) ;
#131 = CARTESIAN_POINT ( 'NONE',  ( 65.72661686996866592, 16.94652238786497378, 100.0000000000000000 ) ) ;
#132 = DIRECTION ( 'NONE',  ( -1.000000000000000000, 0.000000000000000000, 0.000000000000000000 ) ) ;
#133 = ADVANCED_FACE ( 'NONE', ( #34 ), #355, .F. ) ;
#134 = AXIS2_PLACEMENT_3D ( 'NONE', #310, #401, #294 ) ;
#135 = VECTOR ( 'NONE', #102, 1000.000000000000000 ) ;
#136 = VERTEX_POINT ( 'NONE', #481 ) ;
#137 = ORIENTED_EDGE ( 'NONE', *, *, #314, .F. ) ;
#138 = EDGE_CURVE ( 'NONE', #293, #366, #223, .T. ) ;
#139 = APPLICATION_CONTEXT ( 'automotive_design' ) ;
#140 = ORIENTED_EDGE ( 'NONE', *, *, #172, .F. ) ;
#141 = DIRECTION ( 'NONE',  ( 0.000000000000000000, 0.000000000000000000, 1.000000000000000000 ) ) ;
#142 = AXIS2_PLACEMENT_3D ( 'NONE', #305, #470, #72 ) ;
#143 = MECHANICAL_DESIGN_GEOMETRIC_PRESENTATION_REPRESENTATION (  '', ( #190 ), #514 ) ;
#144 = VERTEX_POINT ( 'NONE', #472 ) ;
#145 = ORIENTED_EDGE ( 'NONE', *, *, #508, .F. ) ;
#146 = ORIENTED_EDGE ( 'NONE', *, *, #405, .T. ) ;
#147 = FACE_OUTER_BOUND ( 'NONE', #229, .T. ) ;
#148 = DIRECTION ( 'NONE',  ( 0.000000000000000000, 0.000000000000000000, 1.000000000000000000 ) ) ;
#149 = AXIS2_PLACEMENT_3D ( 'NONE', #80, #432, #222 ) ;
#150 = AXIS2_PLACEMENT_3D ( 'NONE', #385, #124, #268 ) ;
#151 = DIRECTION ( 'NONE',  ( 0.000000000000000000, 0.000000000000000000, 1.000000000000000000 ) ) ;
#152 = CARTESIAN_POINT ( 'NONE',  ( 9.919639073093561200E-15, -54.00000000000000000, 100.0000000000000000 ) ) ;
#153 =( LENGTH_UNIT ( ) NAMED_UNIT ( * ) SI_UNIT ( .MILLI., .METRE. ) );
#154 = ORIENTED_EDGE ( 'NONE', *, *, #444, .F. ) ;
#155 = SURFACE_STYLE_USAGE ( .BOTH. , #462 ) ;
#156 = EDGE_LOOP ( 'NONE', ( #555, #244, #488, #442 ) ) ;
#157 = EDGE_CURVE ( 'NONE', #495, #136, #428, .T. ) ;
#158 = CARTESIAN_POINT ( 'NONE',  ( 49.96872933963937413, 19.61135728543169421, 96.73680895054782525 ) ) ;
#159 = DIRECTION ( 'NONE',  ( -0.000000000000000000, 0.000000000000000000, 1.000000000000000000 ) ) ;
#160 = CIRCLE ( 'NONE', #484, 4.999999999999997335 ) ;
#161 = CARTESIAN_POINT ( 'NONE',  ( 49.75068412319498634, 19.19114867249392375, 96.95708188183623122 ) ) ;
#162 =( NAMED_UNIT ( * ) PLANE_ANGLE_UNIT ( ) SI_UNIT ( $, .RADIAN. ) );
#163 = LINE ( 'NONE', #81, #78 ) ;
#164 = DIRECTION ( 'NONE',  ( 0.000000000000000000, -0.000000000000000000, -1.000000000000000000 ) ) ;
#165 = CARTESIAN_POINT ( 'NONE',  ( 59.26672608738739711, 1.986247437404029759, 0.000000000000000000 ) ) ;
#166 = CARTESIAN_POINT ( 'NONE',  ( 75.87974938733113106, 2.543011361032826656, 100.0000000000000000 ) ) ;
#167 = CIRCLE ( 'NONE', #343, 1.000000000000000888 ) ;
#168 = CARTESIAN_POINT ( 'NONE',  ( 46.98960706607400084, 13.90631402090130919, 97.00000000000000000 ) ) ;
#169 = DIRECTION ( 'NONE',  ( -1.000000000000000000, 0.000000000000000000, 0.000000000000000000 ) ) ;
#170 = CARTESIAN_POINT ( 'NONE',  ( 0.000000000000000000, 0.000000000000000000, 100.0000000000000000 ) ) ;
#171 = UNCERTAINTY_MEASURE_WITH_UNIT (LENGTH_MEASURE( 1.000000000000000082E-05 ), #239, 'distance_accuracy_value', 'NONE');
#172 = EDGE_CURVE ( 'NONE', #144, #380, #307, .T. ) ;
#173 = DIRECTION ( 'NONE',  ( -1.000000000000000000, 0.000000000000000000, 0.000000000000000000 ) ) ;
#174 = EDGE_CURVE ( 'NONE', #106, #322, #216, .T. ) ;
#175 = ORIENTED_EDGE ( 'NONE', *, *, #425, .F. ) ;
#176 = ORIENTED_EDGE ( 'NONE', *, *, #9, .F. ) ;
#177 = VECTOR ( 'NONE', #271, 1000.000000000000000 ) ;
#178 = ORIENTED_EDGE ( 'NONE', *, *, #174, .F. ) ;
#179 = AXIS2_PLACEMENT_3D ( 'NONE', #166, #382, #524 ) ;
#180 = CIRCLE ( 'NONE', #372, 2.500000000000002220 ) ;
#181 = ADVANCED_FACE ( 'NONE', ( #522 ), #126, .T. ) ;
#182 = VERTEX_POINT ( 'NONE', #513 ) ;
#183 = ORIENTED_EDGE ( 'NONE', *, *, #368, .F. ) ;
#184 = CARTESIAN_POINT ( 'NONE',  ( 65.72661686996866592, 16.94652238786497378, 100.0000000000000000 ) ) ;
#185 = VERTEX_POINT ( 'NONE', #466 ) ;
#186 = EDGE_LOOP ( 'NONE', ( #486, #404, #88, #230 ) ) ;
#187 = ORIENTED_EDGE ( 'NONE', *, *, #368, .T. ) ;
#188 = CYLINDRICAL_SURFACE ( 'NONE', #302, 59.29999999999999716 ) ;
#189 = DIRECTION ( 'NONE',  ( 0.000000000000000000, -0.000000000000000000, -1.000000000000000000 ) ) ;
#190 = STYLED_ITEM ( 'NONE', ( #419 ), #29 ) ;
#191 = AXIS2_PLACEMENT_3D ( 'NONE', #383, #558, #122 ) ;
#192 = SURFACE_STYLE_FILL_AREA ( #503 ) ;
#193 = ORIENTED_EDGE ( 'NONE', *, *, #196, .F. ) ;
#194 = CARTESIAN_POINT ( 'NONE',  ( 52.16355174250928428, 11.06055647908273265, 96.95728884107403189 ) ) ;
#195 = ORIENTED_EDGE ( 'NONE', *, *, #391, .T. ) ;
#196 = EDGE_CURVE ( 'NONE', #284, #136, #31, .T. ) ;
#197 = CARTESIAN_POINT ( 'NONE',  ( 53.05678449554858389, 10.04876206270779804, 96.00000000000000000 ) ) ;
#198 =( NAMED_UNIT ( * ) SI_UNIT ( $, .STERADIAN. ) SOLID_ANGLE_UNIT ( ) );
#199 = EDGE_LOOP ( 'NONE', ( #187, #494, #100, #324, #552, #8, #363, #97 ) ) ;
#200 = CARTESIAN_POINT ( 'NONE',  ( 46.98960706607400084, 13.90631402090130919, 100.0000000000000000 ) ) ;
#201 = CARTESIAN_POINT ( 'NONE',  ( 53.05678449554858389, 10.04876206270779804, 97.00000000000000000 ) ) ;
#202 = ADVANCED_FACE ( 'NONE', ( #308 ), #476, .F. ) ;
#203 = CIRCLE ( 'NONE', #333, 54.00000000000000000 ) ;
#204 = ORIENTED_EDGE ( 'NONE', *, *, #13, .F. ) ;
#205 = SURFACE_STYLE_FILL_AREA ( #511 ) ;
#206 = CARTESIAN_POINT ( 'NONE',  ( 51.82281695255447573, 11.10835915435006171, 97.00000000000000000 ) ) ;
#207 = ORIENTED_EDGE ( 'NONE', *, *, #375, .T. ) ;
#208 = DIRECTION ( 'NONE',  ( 1.000000000000000000, 0.000000000000000000, 0.000000000000000000 ) ) ;
#209 = DIRECTION ( 'NONE',  ( -1.000000000000000000, 0.000000000000000000, 0.000000000000000000 ) ) ;
#210 =( LENGTH_UNIT ( ) NAMED_UNIT ( * ) SI_UNIT ( .MILLI., .METRE. ) );
#211 = CARTESIAN_POINT ( 'NONE',  ( 49.63584783463043237, 19.06048499720234091, 96.99999999999998579 ) ) ;
#212 = CIRCLE ( 'NONE', #426, 1.302861348853129320 ) ;
#213 = CARTESIAN_POINT ( 'NONE',  ( 51.77668016566562414, 9.806314957238850383, 97.00000000000000000 ) ) ;
#214 = CIRCLE ( 'NONE', #191, 54.00000000000000000 ) ;
#215 = DIRECTION ( 'NONE',  ( 0.000000000000000000, -0.000000000000000000, -1.000000000000000000 ) ) ;
#216 = LINE ( 'NONE', #562, #279 ) ;
#217 = CARTESIAN_POINT ( 'NONE',  ( 46.98960706607400084, 13.90631402090130919, 97.00000000000000000 ) ) ;
#218 = DIRECTION ( 'NONE',  ( 0.000000000000000000, -0.000000000000000000, -1.000000000000000000 ) ) ;
#219 = CARTESIAN_POINT ( 'NONE',  ( 65.68880133002167554, 17.94580712453342031, 100.0000000000000000 ) ) ;
#220 = CARTESIAN_POINT ( 'NONE',  ( 49.49489004630540734, 18.95404598770767635, 97.00000000000000000 ) ) ;
#221 = ADVANCED_FACE ( 'NONE', ( #553 ), #89, .F. ) ;
#222 = DIRECTION ( 'NONE',  ( -1.000000000000000000, 0.000000000000000000, 0.000000000000000000 ) ) ;
#223 = CIRCLE ( 'NONE', #537, 54.00000000000000000 ) ;
#224 = AXIS2_PLACEMENT_3D ( 'NONE', #28, #215, #350 ) ;
#225 = DIRECTION ( 'NONE',  ( -1.000000000000000000, 0.000000000000000000, 0.000000000000000000 ) ) ;
#226 = EDGE_CURVE ( 'NONE', #535, #540, #473, .T. ) ;
#227 = CARTESIAN_POINT ( 'NONE',  ( 46.98960706607400084, 13.90631402090130919, 97.00000000000000000 ) ) ;
#228 = EDGE_CURVE ( 'NONE', #278, #492, #439, .T. ) ;
#229 = EDGE_LOOP ( 'NONE', ( #175, #178, #282, #420 ) ) ;
#230 = ORIENTED_EDGE ( 'NONE', *, *, #196, .T. ) ;
#231 = AXIS2_PLACEMENT_3D ( 'NONE', #433, #306, #421 ) ;
#232 = ORIENTED_EDGE ( 'NONE', *, *, #388, .T. ) ;
#233 = EDGE_CURVE ( 'NONE', #144, #106, #550, .T. ) ;
#234 = VECTOR ( 'NONE', #459, 1000.000000000000000 ) ;
#235 = ADVANCED_BREP_SHAPE_REPRESENTATION ( 'PiÞce support pq mouton', ( #29, #370 ), #300 ) ;
#236 = UNCERTAINTY_MEASURE_WITH_UNIT (LENGTH_MEASURE( 1.000000000000000082E-05 ), #210, 'distance_accuracy_value', 'NONE');
#237 = EDGE_LOOP ( 'NONE', ( #288, #195, #85, #572 ) ) ;
#238 = DIRECTION ( 'NONE',  ( 0.000000000000000000, -0.000000000000000000, -1.000000000000000000 ) ) ;
#239 =( LENGTH_UNIT ( ) NAMED_UNIT ( * ) SI_UNIT ( .MILLI., .METRE. ) );
#240 = EDGE_CURVE ( 'NONE', #106, #293, #317, .T. ) ;
#241 = ORIENTED_EDGE ( 'NONE', *, *, #531, .F. ) ;
#242 = AXIS2_PLACEMENT_3D ( 'NONE', #356, #525, #225 ) ;
#243 = FACE_OUTER_BOUND ( 'NONE', #461, .T. ) ;
#244 = ORIENTED_EDGE ( 'NONE', *, *, #351, .F. ) ;
#245 = DIRECTION ( 'NONE',  ( -1.000000000000000000, 0.000000000000000000, 0.000000000000000000 ) ) ;
#246 = ORIENTED_EDGE ( 'NONE', *, *, #174, .T. ) ;
#247 = EDGE_CURVE ( 'NONE', #374, #374, #180, .T. ) ;
#248 = EDGE_LOOP ( 'NONE', ( #506 ) ) ;
#249 = DIRECTION ( 'NONE',  ( 0.000000000000000000, -0.000000000000000000, -1.000000000000000000 ) ) ;
#250 = VERTEX_POINT ( 'NONE', #360 ) ;
#251 = CYLINDRICAL_SURFACE ( 'NONE', #107, 1.000000000000000888 ) ;
#252 = CARTESIAN_POINT ( 'NONE',  ( 65.72661686996866592, 16.94652238786497378, 0.000000000000000000 ) ) ;
#253 = SHAPE_DEFINITION_REPRESENTATION ( #120, #235 ) ;
#254 = CARTESIAN_POINT ( 'NONE',  ( 50.01682200315887883, 20.30443648441505644, 96.22586876528460209 ) ) ;
#255 = DIRECTION ( 'NONE',  ( -0.000000000000000000, 0.000000000000000000, 1.000000000000000000 ) ) ;
#256 = CYLINDRICAL_SURFACE ( 'NONE', #224, 54.00000000000000711 ) ;
#257 = AXIS2_PLACEMENT_3D ( 'NONE', #114, #563, #567 ) ;
#258 =( GEOMETRIC_REPRESENTATION_CONTEXT ( 3 ) GLOBAL_UNCERTAINTY_ASSIGNED_CONTEXT ( ( #457 ) ) GLOBAL_UNIT_ASSIGNED_CONTEXT ( ( #153, #162, #128 ) ) REPRESENTATION_CONTEXT ( 'NONE', 'WORKASPACE' ) );
#259 = CARTESIAN_POINT ( 'NONE',  ( 48.31396924109608193, 18.72773132594458900, 100.0000000000000000 ) ) ;
#260 = CIRCLE ( 'NONE', #76, 2.500000000000002220 ) ;
#261 = CIRCLE ( 'NONE', #530, 1.000000000000000888 ) ;
#262 = DIRECTION ( 'NONE',  ( -1.000000000000000000, 0.000000000000000000, 0.000000000000000000 ) ) ;
#263 = FACE_OUTER_BOUND ( 'NONE', #532, .T. ) ;
#264 = FACE_OUTER_BOUND ( 'NONE', #237, .T. ) ;
#265 = EDGE_CURVE ( 'NONE', #270, #284, #450, .T. ) ;
#266 = DIRECTION ( 'NONE',  ( -1.000000000000000000, 0.000000000000000000, 0.000000000000000000 ) ) ;
#267 = CARTESIAN_POINT ( 'NONE',  ( 65.68880133002167554, 17.94580712453342031, 0.000000000000000000 ) ) ;
#268 = DIRECTION ( 'NONE',  ( -1.000000000000000000, 0.000000000000000000, 0.000000000000000000 ) ) ;
#269 = STYLED_ITEM ( 'NONE', ( #413 ), #235 ) ;
#270 = VERTEX_POINT ( 'NONE', #526 ) ;
#271 = DIRECTION ( 'NONE',  ( 0.000000000000000000, 1.000000000000000000, 0.000000000000000000 ) ) ;
#272 = CIRCLE ( 'NONE', #3, 54.00000000000000000 ) ;
#273 = AXIS2_PLACEMENT_3D ( 'NONE', #217, #390, #564 ) ;
#274 = ADVANCED_FACE ( 'NONE', ( #65 ), #251, .T. ) ;
#275 = FACE_OUTER_BOUND ( 'NONE', #186, .T. ) ;
#276 = EDGE_LOOP ( 'NONE', ( #95, #146, #359, #408, #440, #441, #145, #336 ) ) ;
#277 = ORIENTED_EDGE ( 'NONE', *, *, #468, .T. ) ;
#278 = VERTEX_POINT ( 'NONE', #415 ) ;
#279 = VECTOR ( 'NONE', #164, 1000.000000000000000 ) ;
#280 = EDGE_LOOP ( 'NONE', ( #18, #140, #386, #246 ) ) ;
#281 = DIRECTION ( 'NONE',  ( 0.000000000000000000, -0.000000000000000000, -1.000000000000000000 ) ) ;
#282 = ORIENTED_EDGE ( 'NONE', *, *, #240, .T. ) ;
#283 = DIRECTION ( 'NONE',  ( -0.000000000000000000, -0.000000000000000000, -1.000000000000000000 ) ) ;
#284 = VERTEX_POINT ( 'NONE', #377 ) ;
#285 = CARTESIAN_POINT ( 'NONE',  ( 63.64676217288449322, 71.90718290462930895, 100.0000000000000000 ) ) ;
#286 = CARTESIAN_POINT ( 'NONE',  ( 48.31396924109608193, 18.72773132594458900, 97.00000000000000000 ) ) ;
#287 = ORIENTED_EDGE ( 'NONE', *, *, #59, .T. ) ;
#288 = ORIENTED_EDGE ( 'NONE', *, *, #341, .T. ) ;
#289 = AXIS2_PLACEMENT_3D ( 'NONE', #77, #465, #510 ) ;
#290 = ADVANCED_FACE ( 'NONE', ( #412 ), #104, .F. ) ;
#291 = LINE ( 'NONE', #456, #438 ) ;
#292 = SURFACE_SIDE_STYLE ('',( #192 ) ) ;
#293 = VERTEX_POINT ( 'NONE', #152 ) ;
#294 = DIRECTION ( 'NONE',  ( 1.000000000000000000, 0.000000000000000000, 0.000000000000000000 ) ) ;
#295 = DIRECTION ( 'NONE',  ( 1.000000000000000000, 0.000000000000000000, 0.000000000000000000 ) ) ;
#296 = CARTESIAN_POINT ( 'NONE',  ( 51.99695098517351255, 11.10218886860180909, 96.99999999999997158 ) ) ;
#297 = ORIENTED_EDGE ( 'NONE', *, *, #94, .T. ) ;
#298 = CARTESIAN_POINT ( 'NONE',  ( 0.000000000000000000, 0.000000000000000000, 96.00000000000000000 ) ) ;
#299 = CARTESIAN_POINT ( 'NONE',  ( 0.000000000000000000, 0.000000000000000000, 97.00000000000000000 ) ) ;
#300 =( GEOMETRIC_REPRESENTATION_CONTEXT ( 3 ) GLOBAL_UNCERTAINTY_ASSIGNED_CONTEXT ( ( #171 ) ) GLOBAL_UNIT_ASSIGNED_CONTEXT ( ( #239, #57, #198 ) ) REPRESENTATION_CONTEXT ( 'NONE', 'WORKASPACE' ) );
#301 = DIRECTION ( 'NONE',  ( 1.000000000000000000, 0.000000000000000000, 0.000000000000000000 ) ) ;
#302 = AXIS2_PLACEMENT_3D ( 'NONE', #376, #62, #208 ) ;
#303 = CIRCLE ( 'NONE', #242, 59.29999999999999716 ) ;
#304 = CARTESIAN_POINT ( 'NONE',  ( 50.03582312418916445, 19.89492603494240441, 96.54789062441220437 ) ) ;
#305 = CARTESIAN_POINT ( 'NONE',  ( 75.87974938733113106, 2.543011361032826656, 100.0000000000000000 ) ) ;
#306 = DIRECTION ( 'NONE',  ( -0.000000000000000000, 0.000000000000000000, 1.000000000000000000 ) ) ;
#307 = LINE ( 'NONE', #430, #549 ) ;
#308 = FACE_OUTER_BOUND ( 'NONE', #53, .T. ) ;
#309 = CYLINDRICAL_SURFACE ( 'NONE', #273, 4.999999999999997335 ) ;
#310 = CARTESIAN_POINT ( 'NONE',  ( 0.000000000000000000, 0.000000000000000000, 100.0000000000000000 ) ) ;
#311 = CARTESIAN_POINT ( 'NONE',  ( 53.05678449554858389, 10.04876206270779804, 100.0000000000000000 ) ) ;
#312 = CARTESIAN_POINT ( 'NONE',  ( 0.000000000000000000, 0.000000000000000000, 0.000000000000000000 ) ) ;
#313 = DIRECTION ( 'NONE',  ( -0.000000000000000000, -0.000000000000000000, -1.000000000000000000 ) ) ;
#314 = EDGE_CURVE ( 'NONE', #369, #544, #502, .T. ) ;
#315 = DIRECTION ( 'NONE',  ( 0.000000000000000000, 0.000000000000000000, 1.000000000000000000 ) ) ;
#316 = DIRECTION ( 'NONE',  ( -0.000000000000000000, -0.000000000000000000, -1.000000000000000000 ) ) ;
#317 = LINE ( 'NONE', #86, #177 ) ;
#318 = AXIS2_PLACEMENT_3D ( 'NONE', #447, #326, #49 ) ;
#319 = ORIENTED_EDGE ( 'NONE', *, *, #59, .F. ) ;
#320 = EDGE_CURVE ( 'NONE', #185, #103, #160, .T. ) ;
#321 = EDGE_LOOP ( 'NONE', ( #443, #463, #328, #11 ) ) ;
#322 = VERTEX_POINT ( 'NONE', #554 ) ;
#323 = EDGE_CURVE ( 'NONE', #284, #278, #362, .T. ) ;
#324 = ORIENTED_EDGE ( 'NONE', *, *, #425, .T. ) ;
#325 = AXIS2_PLACEMENT_3D ( 'NONE', #108, #141, #346 ) ;
#326 = DIRECTION ( 'NONE',  ( 0.000000000000000000, 0.000000000000000000, 1.000000000000000000 ) ) ;
#327 = CARTESIAN_POINT ( 'NONE',  ( 51.77668016566562414, 9.806314957238850383, 97.00000000000000000 ) ) ;
#328 = ORIENTED_EDGE ( 'NONE', *, *, #391, .F. ) ;
#329 = DIRECTION ( 'NONE',  ( -0.000000000000000000, 0.000000000000000000, 1.000000000000000000 ) ) ;
#330 = ORIENTED_EDGE ( 'NONE', *, *, #115, .T. ) ;
#331 = AXIS2_PLACEMENT_3D ( 'NONE', #299, #354, #67 ) ;
#332 = LINE ( 'NONE', #109, #344 ) ;
#333 = AXIS2_PLACEMENT_3D ( 'NONE', #79, #255, #169 ) ;
#334 = AXIS2_PLACEMENT_3D ( 'NONE', #118, #474, #471 ) ;
#335 = FILL_AREA_STYLE_COLOUR ( '', #546 ) ;
#336 = ORIENTED_EDGE ( 'NONE', *, *, #42, .F. ) ;
#337 = LINE ( 'NONE', #201, #135 ) ;
#338 = VERTEX_POINT ( 'NONE', #197 ) ;
#339 = DIRECTION ( 'NONE',  ( 0.000000000000000000, 1.000000000000000000, 0.000000000000000000 ) ) ;
#340 = FILL_AREA_STYLE_COLOUR ( '', #96 ) ;
#341 = EDGE_CURVE ( 'NONE', #535, #182, #212, .T. ) ;
#342 = DIRECTION ( 'NONE',  ( -0.000000000000000000, -0.000000000000000000, -1.000000000000000000 ) ) ;
#343 = AXIS2_PLACEMENT_3D ( 'NONE', #566, #316, #392 ) ;
#344 = VECTOR ( 'NONE', #189, 1000.000000000000000 ) ;
#345 = DIRECTION ( 'NONE',  ( -1.000000000000000000, 0.000000000000000000, 0.000000000000000000 ) ) ;
#346 = DIRECTION ( 'NONE',  ( -1.000000000000000000, 0.000000000000000000, 0.000000000000000000 ) ) ;
#347 = LINE ( 'NONE', #518, #394 ) ;
#348 = CARTESIAN_POINT ( 'NONE',  ( 49.93334973348814287, 20.55871066952301263, 96.00000000000000000 ) ) ;
#349 = PLANE ( 'NONE',  #489 ) ;
#350 = DIRECTION ( 'NONE',  ( 1.000000000000000000, 0.000000000000000000, 0.000000000000000000 ) ) ;
#351 = EDGE_CURVE ( 'NONE', #400, #111, #332, .T. ) ;
#352 = LINE ( 'NONE', #357, #66 ) ;
#353 = DIRECTION ( 'NONE',  ( 0.000000000000000000, 0.000000000000000000, 1.000000000000000000 ) ) ;
#354 = DIRECTION ( 'NONE',  ( 0.000000000000000000, 0.000000000000000000, 1.000000000000000000 ) ) ;
#355 = CYLINDRICAL_SURFACE ( 'NONE', #464, 1.302861348853129320 ) ;
#356 = CARTESIAN_POINT ( 'NONE',  ( 0.000000000000000000, 0.000000000000000000, 0.000000000000000000 ) ) ;
#357 = CARTESIAN_POINT ( 'NONE',  ( 54.35839472100459346, 23.69925997484857660, 100.0000000000000000 ) ) ;
#358 = DIRECTION ( 'NONE',  ( -1.000000000000000000, 0.000000000000000000, 0.000000000000000000 ) ) ;
#359 = ORIENTED_EDGE ( 'NONE', *, *, #314, .T. ) ;
#360 = CARTESIAN_POINT ( 'NONE',  ( 49.93334973348814287, 20.55871066952301263, 96.00000000000000000 ) ) ;
#361 = EDGE_CURVE ( 'NONE', #182, #185, #291, .T. ) ;
#362 = CIRCLE ( 'NONE', #573, 54.00000000000000000 ) ;
#363 = ORIENTED_EDGE ( 'NONE', *, *, #157, .T. ) ;
#364 = AXIS2_PLACEMENT_3D ( 'NONE', #170, #41, #358 ) ;
#365 = EDGE_LOOP ( 'NONE', ( #319 ) ) ;
#366 = VERTEX_POINT ( 'NONE', #311 ) ;
#367 = ORIENTED_EDGE ( 'NONE', *, *, #405, .F. ) ;
#368 = EDGE_CURVE ( 'NONE', #492, #111, #261, .T. ) ;
#369 = VERTEX_POINT ( 'NONE', #393 ) ;
#370 = AXIS2_PLACEMENT_3D ( 'NONE', #312, #68, #301 ) ;
#371 = ORIENTED_EDGE ( 'NONE', *, *, #233, .F. ) ;
#372 = AXIS2_PLACEMENT_3D ( 'NONE', #227, #398, #173 ) ;
#373 = DIRECTION ( 'NONE',  ( 0.000000000000000000, 0.000000000000000000, 1.000000000000000000 ) ) ;
#374 = VERTEX_POINT ( 'NONE', #545 ) ;
#375 = EDGE_CURVE ( 'NONE', #378, #103, #403, .T. ) ;
#376 = CARTESIAN_POINT ( 'NONE',  ( 0.000000000000000000, 0.000000000000000000, 100.0000000000000000 ) ) ;
#377 = CARTESIAN_POINT ( 'NONE',  ( 56.37337343443212490, 18.39925997484857234, 100.0000000000000000 ) ) ;
#378 = VERTEX_POINT ( 'NONE', #568 ) ;
#379 = CARTESIAN_POINT ( 'NONE',  ( 48.51320173634014310, 23.71643432915591987, 0.000000000000000000 ) ) ;
#380 = VERTEX_POINT ( 'NONE', #165 ) ;
#381 = CARTESIAN_POINT ( 'NONE',  ( 9.919639073093561200E-15, -54.00000000000000000, 100.0000000000000000 ) ) ;
#382 = DIRECTION ( 'NONE',  ( 0.000000000000000000, -0.000000000000000000, -1.000000000000000000 ) ) ;
#383 = CARTESIAN_POINT ( 'NONE',  ( 0.000000000000000000, 0.000000000000000000, 100.0000000000000000 ) ) ;
#384 = CIRCLE ( 'NONE', #289, 1.361322602822220951 ) ;
#385 = CARTESIAN_POINT ( 'NONE',  ( 0.000000000000000000, 0.000000000000000000, 0.000000000000000000 ) ) ;
#386 = ORIENTED_EDGE ( 'NONE', *, *, #233, .T. ) ;
#387 = LINE ( 'NONE', #561, #538 ) ;
#388 = EDGE_CURVE ( 'NONE', #540, #527, #384, .T. ) ;
#389 = CARTESIAN_POINT ( 'NONE',  ( 0.000000000000000000, 0.000000000000000000, 100.0000000000000000 ) ) ;
#390 = DIRECTION ( 'NONE',  ( 0.000000000000000000, 0.000000000000000000, 1.000000000000000000 ) ) ;
#391 = EDGE_CURVE ( 'NONE', #182, #527, #26, .T. ) ;
#392 = DIRECTION ( 'NONE',  ( -1.000000000000000000, 0.000000000000000000, 0.000000000000000000 ) ) ;
#393 = CARTESIAN_POINT ( 'NONE',  ( 48.51320173634014310, 23.71643432915591987, 100.0000000000000000 ) ) ;
#394 = VECTOR ( 'NONE', #121, 1000.000000000000000 ) ;
#395 = CARTESIAN_POINT ( 'NONE',  ( 46.98960706607400084, 13.90631402090130919, 100.0000000000000000 ) ) ;
#396 = PRESENTATION_LAYER_ASSIGNMENT (  '', '', ( #190 ) ) ;
#397 = CYLINDRICAL_SURFACE ( 'NONE', #87, 2.500000000000002220 ) ;
#398 = DIRECTION ( 'NONE',  ( -0.000000000000000000, -0.000000000000000000, -1.000000000000000000 ) ) ;
#399 = VECTOR ( 'NONE', #35, 1000.000000000000000 ) ;
#400 = VERTEX_POINT ( 'NONE', #431 ) ;
#401 = DIRECTION ( 'NONE',  ( 0.000000000000000000, -0.000000000000000000, -1.000000000000000000 ) ) ;
#402 = CIRCLE ( 'NONE', #325, 1.302861348853129320 ) ;
#403 = CIRCLE ( 'NONE', #574, 1.361322602822220951 ) ;
#404 = ORIENTED_EDGE ( 'NONE', *, *, #115, .F. ) ;
#405 = EDGE_CURVE ( 'NONE', #378, #369, #214, .T. ) ;
#406 = ADVANCED_FACE ( 'NONE', ( #73, #264 ), #116, .F. ) ;
#407 = ORIENTED_EDGE ( 'NONE', *, *, #323, .T. ) ;
#408 = ORIENTED_EDGE ( 'NONE', *, *, #75, .F. ) ;
#409 = DIRECTION ( 'NONE',  ( -1.000000000000000000, 0.000000000000000000, 0.000000000000000000 ) ) ;
#410 = ORIENTED_EDGE ( 'NONE', *, *, #482, .F. ) ;
#411 = CYLINDRICAL_SURFACE ( 'NONE', #318, 1.361322602822220951 ) ;
#412 = FACE_OUTER_BOUND ( 'NONE', #276, .T. ) ;
#413 = PRESENTATION_STYLE_ASSIGNMENT (( #60 ) ) ;
#414 = CARTESIAN_POINT ( 'NONE',  ( 0.000000000000000000, -59.29999999999999716, 100.0000000000000000 ) ) ;
#415 = CARTESIAN_POINT ( 'NONE',  ( 65.68880133002167554, 17.94580712453342031, 100.0000000000000000 ) ) ;
#416 = CIRCLE ( 'NONE', #17, 54.00000000000000000 ) ;
#417 = CARTESIAN_POINT ( 'NONE',  ( 52.98891550797398509, 10.30165532273682061, 96.22598844674317320 ) ) ;
#418 = ORIENTED_EDGE ( 'NONE', *, *, #320, .F. ) ;
#419 = PRESENTATION_STYLE_ASSIGNMENT (( #155 ) ) ;
#420 = ORIENTED_EDGE ( 'NONE', *, *, #458, .T. ) ;
#421 = DIRECTION ( 'NONE',  ( 1.000000000000000000, 0.000000000000000000, 0.000000000000000000 ) ) ;
#422 = CARTESIAN_POINT ( 'NONE',  ( 56.37337343443212490, 18.39925997484857234, 100.0000000000000000 ) ) ;
#423 = CARTESIAN_POINT ( 'NONE',  ( 49.91270543209151356, 19.46948823406247442, 96.82050504237905386 ) ) ;
#424 = CARTESIAN_POINT ( 'NONE',  ( 66.30276774366633674, 16.12917902627365052, 0.000000000000000000 ) ) ;
#425 = EDGE_CURVE ( 'NONE', #322, #445, #163, .T. ) ;
#426 = AXIS2_PLACEMENT_3D ( 'NONE', #327, #148, #490 ) ;
#427 = DIRECTION ( 'NONE',  ( -1.000000000000000000, 0.000000000000000000, 0.000000000000000000 ) ) ;
#428 = CIRCLE ( 'NONE', #150, 59.29999999999999716 ) ;
#429 = AXIS2_PLACEMENT_3D ( 'NONE', #37, #353, #132 ) ;
#430 = CARTESIAN_POINT ( 'NONE',  ( 59.26672608738739711, 1.986247437404029759, 100.0000000000000000 ) ) ;
#431 = CARTESIAN_POINT ( 'NONE',  ( 66.30276774366633674, 16.12917902627365052, 100.0000000000000000 ) ) ;
#432 = DIRECTION ( 'NONE',  ( 0.000000000000000000, 0.000000000000000000, 1.000000000000000000 ) ) ;
#433 = CARTESIAN_POINT ( 'NONE',  ( 75.87974938733113106, 2.543011361032826656, 0.000000000000000000 ) ) ;
#434 = FACE_OUTER_BOUND ( 'NONE', #156, .T. ) ;
#435 = CARTESIAN_POINT ( 'NONE',  ( 54.35839472100459346, 23.69925997484857660, 0.000000000000000000 ) ) ;
#436 = EDGE_CURVE ( 'NONE', #111, #380, #74, .T. ) ;
#437 = CIRCLE ( 'NONE', #142, 16.62235029203534964 ) ;
#438 = VECTOR ( 'NONE', #373, 1000.000000000000000 ) ;
#439 = LINE ( 'NONE', #219, #498 ) ;
#440 = ORIENTED_EDGE ( 'NONE', *, *, #458, .F. ) ;
#441 = ORIENTED_EDGE ( 'NONE', *, *, #138, .T. ) ;
#442 = ORIENTED_EDGE ( 'NONE', *, *, #172, .T. ) ;
#443 = ORIENTED_EDGE ( 'NONE', *, *, #320, .T. ) ;
#444 = EDGE_CURVE ( 'NONE', #544, #495, #533, .T. ) ;
#445 = VERTEX_POINT ( 'NONE', #127 ) ;
#446 = DIRECTION ( 'NONE',  ( -0.000000000000000000, -0.000000000000000000, -1.000000000000000000 ) ) ;
#447 = CARTESIAN_POINT ( 'NONE',  ( 48.67454607373214515, 20.04043219694331412, 97.00000000000000000 ) ) ;
#448 = ORIENTED_EDGE ( 'NONE', *, *, #323, .F. ) ;
#449 = CARTESIAN_POINT ( 'NONE',  ( 53.03251725000229300, 10.17689147896976820, 96.11286232074154157 ) ) ;
#450 = CIRCLE ( 'NONE', #117, 59.29999999999999716 ) ;
#451 = ORIENTED_EDGE ( 'NONE', *, *, #247, .T. ) ;
#452 = CLOSED_SHELL ( 'NONE', ( #274, #48, #181, #27, #290, #565, #1, #480, #69, #221, #133, #520, #504, #485, #406, #202 ) ) ;
#453 = ORIENTED_EDGE ( 'NONE', *, *, #531, .T. ) ;
#454 = AXIS2_PLACEMENT_3D ( 'NONE', #505, #329, #409 ) ;
#455 = DIRECTION ( 'NONE',  ( 1.000000000000000000, 0.000000000000000000, 0.000000000000000000 ) ) ;
#456 = CARTESIAN_POINT ( 'NONE',  ( 50.78714665534537431, 10.65382373376490044, 97.00000000000000000 ) ) ;
#457 = UNCERTAINTY_MEASURE_WITH_UNIT (LENGTH_MEASURE( 1.000000000000000082E-05 ), #153, 'distance_accuracy_value', 'NONE');
#458 = EDGE_CURVE ( 'NONE', #293, #445, #477, .T. ) ;
#459 = DIRECTION ( 'NONE',  ( 0.000000000000000000, -0.000000000000000000, -1.000000000000000000 ) ) ;
#460 = CARTESIAN_POINT ( 'NONE',  ( 49.49489004630540734, 18.95404598770767635, 97.00000000000000000 ) ) ;
#461 = EDGE_LOOP ( 'NONE', ( #529, #410, #50, #232, #58 ) ) ;
#462 = SURFACE_SIDE_STYLE ('',( #205 ) ) ;
#463 = ORIENTED_EDGE ( 'NONE', *, *, #5, .F. ) ;
#464 = AXIS2_PLACEMENT_3D ( 'NONE', #213, #36, #345 ) ;
#465 = DIRECTION ( 'NONE',  ( -0.000000000000000000, -0.000000000000000000, -1.000000000000000000 ) ) ;
#466 = CARTESIAN_POINT ( 'NONE',  ( 50.78714665534537431, 10.65382373376490044, 100.0000000000000000 ) ) ;
#467 = DIRECTION ( 'NONE',  ( -0.000000000000000000, -0.000000000000000000, -1.000000000000000000 ) ) ;
#468 = EDGE_CURVE ( 'NONE', #540, #250, #543, .T. ) ;
#469 = CYLINDRICAL_SURFACE ( 'NONE', #179, 16.62235029203534964 ) ;
#470 = DIRECTION ( 'NONE',  ( -0.000000000000000000, 0.000000000000000000, 1.000000000000000000 ) ) ;
#471 = DIRECTION ( 'NONE',  ( -1.000000000000000000, 0.000000000000000000, 0.000000000000000000 ) ) ;
#472 = CARTESIAN_POINT ( 'NONE',  ( 59.26672608738739711, 1.986247437404029759, 100.0000000000000000 ) ) ;
#473 = CIRCLE ( 'NONE', #149, 53.00000000000000000 ) ;
#474 = DIRECTION ( 'NONE',  ( -0.000000000000000000, -0.000000000000000000, -1.000000000000000000 ) ) ;
#475 = APPLICATION_PROTOCOL_DEFINITION ( 'draft international standard', 'automotive_design', 1998, #139 ) ;
#476 = TOROIDAL_SURFACE ( 'NONE', #257, 53.00000000000000000, 1.000000000000000000 ) ;
#477 = LINE ( 'NONE', #381, #399 ) ;
#478 = DIRECTION ( 'NONE',  ( -1.000000000000000000, 0.000000000000000000, 0.000000000000000000 ) ) ;
#479 = DIRECTION ( 'NONE',  ( -1.000000000000000000, 0.000000000000000000, 0.000000000000000000 ) ) ;
#480 = ADVANCED_FACE ( 'NONE', ( #519 ), #256, .F. ) ;
#481 = CARTESIAN_POINT ( 'NONE',  ( 56.37337343443212490, 18.39925997484857234, 0.000000000000000000 ) ) ;
#482 = EDGE_CURVE ( 'NONE', #250, #378, #387, .T. ) ;
#483 = ORIENTED_EDGE ( 'NONE', *, *, #123, .T. ) ;
#484 = AXIS2_PLACEMENT_3D ( 'NONE', #200, #446, #245 ) ;
#485 = ADVANCED_FACE ( 'NONE', ( #125 ), #309, .T. ) ;
#486 = ORIENTED_EDGE ( 'NONE', *, *, #157, .F. ) ;
#487 = B_SPLINE_CURVE_WITH_KNOTS ( 'NONE', 3,
 ( #52, #449, #417, #112, #63, #20, #105, #14, #7, #194, #296, #206 ),
 .UNSPECIFIED., .F., .F.,
 ( 4, 2, 2, 2, 2, 4 ),
 ( -7.307738813259998045E-06, 0.0005100846281345949602, 0.001027476995082450073, 0.001286173178556381533, 0.001544869362030312993, 0.002062261728978160083 ),
 .UNSPECIFIED. ) ;
#488 = ORIENTED_EDGE ( 'NONE', *, *, #9, .T. ) ;
#489 = AXIS2_PLACEMENT_3D ( 'NONE', #131, #129, #478 ) ;
#490 = DIRECTION ( 'NONE',  ( -1.000000000000000000, 2.662944107604133473E-15, 0.000000000000000000 ) ) ;
#491 = VERTEX_POINT ( 'NONE', #2 ) ;
#492 = VERTEX_POINT ( 'NONE', #267 ) ;
#493 = CARTESIAN_POINT ( 'NONE',  ( 0.000000000000000000, 0.000000000000000000, 100.0000000000000000 ) ) ;
#494 = ORIENTED_EDGE ( 'NONE', *, *, #436, .T. ) ;
#495 = VERTEX_POINT ( 'NONE', #435 ) ;
#496 = EDGE_CURVE ( 'NONE', #380, #322, #303, .T. ) ;
#497 = FACE_OUTER_BOUND ( 'NONE', #45, .T. ) ;
#498 = VECTOR ( 'NONE', #570, 1000.000000000000000 ) ;
#499 = ORIENTED_EDGE ( 'NONE', *, *, #94, .F. ) ;
#500 = MECHANICAL_DESIGN_GEOMETRIC_PRESENTATION_REPRESENTATION (  '', ( #269 ), #258 ) ;
#501 = AXIS2_PLACEMENT_3D ( 'NONE', #56, #238, #295 ) ;
#502 = LINE ( 'NONE', #19, #234 ) ;
#503 = FILL_AREA_STYLE ('',( #335 ) ) ;
#504 = ADVANCED_FACE ( 'NONE', ( #39, #130 ), #397, .F. ) ;
#505 = CARTESIAN_POINT ( 'NONE',  ( 63.64676217288449322, 71.90718290462930895, 0.000000000000000000 ) ) ;
#506 = ORIENTED_EDGE ( 'NONE', *, *, #247, .F. ) ;
#507 = PLANE ( 'NONE',  #40 ) ;
#508 = EDGE_CURVE ( 'NONE', #338, #366, #337, .T. ) ;
#509 = EDGE_LOOP ( 'NONE', ( #101, #193, #407, #21 ) ) ;
#510 = DIRECTION ( 'NONE',  ( -1.000000000000000000, 0.000000000000000000, 0.000000000000000000 ) ) ;
#511 = FILL_AREA_STYLE ('',( #340 ) ) ;
#512 = ORIENTED_EDGE ( 'NONE', *, *, #138, .F. ) ;
#513 = CARTESIAN_POINT ( 'NONE',  ( 50.78714665534537431, 10.65382373376490044, 97.00000000000000000 ) ) ;
#514 =( GEOMETRIC_REPRESENTATION_CONTEXT ( 3 ) GLOBAL_UNCERTAINTY_ASSIGNED_CONTEXT ( ( #236 ) ) GLOBAL_UNIT_ASSIGNED_CONTEXT ( ( #210, #560, #71 ) ) REPRESENTATION_CONTEXT ( 'NONE', 'WORKASPACE' ) );
#515 = CARTESIAN_POINT ( 'NONE',  ( 49.98989298040030604, 19.68220915238198288, 96.69159204164610344 ) ) ;
#516 = AXIS2_PLACEMENT_3D ( 'NONE', #22, #523, #209 ) ;
#517 = DIRECTION ( 'NONE',  ( -1.000000000000000000, 0.000000000000000000, 0.000000000000000000 ) ) ;
#518 = CARTESIAN_POINT ( 'NONE',  ( 48.31396924109608193, 18.72773132594458900, 97.00000000000000000 ) ) ;
#519 = FACE_OUTER_BOUND ( 'NONE', #509, .T. ) ;
#520 = ADVANCED_FACE ( 'NONE', ( #243 ), #411, .F. ) ;
#521 = DIRECTION ( 'NONE',  ( 0.000000000000000000, 0.000000000000000000, 1.000000000000000000 ) ) ;
#522 = FACE_OUTER_BOUND ( 'NONE', #280, .T. ) ;
#523 = DIRECTION ( 'NONE',  ( -0.000000000000000000, 0.000000000000000000, 1.000000000000000000 ) ) ;
#524 = DIRECTION ( 'NONE',  ( 1.000000000000000000, 0.000000000000000000, 0.000000000000000000 ) ) ;
#525 = DIRECTION ( 'NONE',  ( -0.000000000000000000, -0.000000000000000000, -1.000000000000000000 ) ) ;
#526 = CARTESIAN_POINT ( 'NONE',  ( 54.35839472100459346, 23.69925997484857660, 100.0000000000000000 ) ) ;
#527 = VERTEX_POINT ( 'NONE', #286 ) ;
#528 = DIRECTION ( 'NONE',  ( -1.000000000000000000, 0.000000000000000000, 0.000000000000000000 ) ) ;
#529 = ORIENTED_EDGE ( 'NONE', *, *, #375, .F. ) ;
#530 = AXIS2_PLACEMENT_3D ( 'NONE', #252, #342, #262 ) ;
#531 = EDGE_CURVE ( 'NONE', #338, #535, #487, .T. ) ;
#532 = EDGE_LOOP ( 'NONE', ( #92, #448, #64, #499, #367, #207, #418, #204, #512, #547, #371, #176 ) ) ;
#533 = CIRCLE ( 'NONE', #516, 54.00000000000000000 ) ;
#534 = ORIENTED_EDGE ( 'NONE', *, *, #228, .F. ) ;
#535 = VERTEX_POINT ( 'NONE', #110 ) ;
#536 = EDGE_LOOP ( 'NONE', ( #451 ) ) ;
#537 = AXIS2_PLACEMENT_3D ( 'NONE', #389, #84, #517 ) ;
#538 = VECTOR ( 'NONE', #521, 1000.000000000000000 ) ;
#539 = EDGE_CURVE ( 'NONE', #136, #492, #559, .T. ) ;
#540 = VERTEX_POINT ( 'NONE', #460 ) ;
#541 = DIRECTION ( 'NONE',  ( -1.000000000000000000, 0.000000000000000000, 0.000000000000000000 ) ) ;
#542 = APPLICATION_PROTOCOL_DEFINITION ( 'draft international standard', 'automotive_design', 1998, #571 ) ;
#543 = B_SPLINE_CURVE_WITH_KNOTS ( 'NONE', 3,
 ( #220, #211, #161, #556, #423, #158, #515, #304, #70, #254, #24, #348 ),
 .UNSPECIFIED., .F., .F.,
 ( 4, 2, 2, 2, 2, 4 ),
 ( 0.000000000000000000, 0.0005207355492445864785, 0.0007811033238668847051, 0.001041471098489183148, 0.001562206647733751846, 0.002082942196978320760 ),
 .UNSPECIFIED. ) ;
#544 = VERTEX_POINT ( 'NONE', #379 ) ;
#545 = CARTESIAN_POINT ( 'NONE',  ( 44.48960706607400084, 13.90631402090130919, 97.00000000000000000 ) ) ;
#546 = COLOUR_RGB ( '',0.7921568627450980005, 0.8196078431372548767, 0.9333333333333333481 ) ;
#547 = ORIENTED_EDGE ( 'NONE', *, *, #240, .F. ) ;
#548 = PRODUCT_DEFINITION_FORMATION_WITH_SPECIFIED_SOURCE ( 'ANY', '', #32, .NOT_KNOWN. ) ;
#549 = VECTOR ( 'NONE', #30, 1000.000000000000000 ) ;
#550 = CIRCLE ( 'NONE', #364, 59.29999999999999716 ) ;
#551 = CARTESIAN_POINT ( 'NONE',  ( 51.59422787059589410, 77.62846710440965126, 100.0000000000000000 ) ) ;
#552 = ORIENTED_EDGE ( 'NONE', *, *, #75, .T. ) ;
#553 = FACE_OUTER_BOUND ( 'NONE', #199, .T. ) ;
#554 = CARTESIAN_POINT ( 'NONE',  ( 0.000000000000000000, -59.29999999999999716, 0.000000000000000000 ) ) ;
#555 = ORIENTED_EDGE ( 'NONE', *, *, #436, .F. ) ;
#556 = CARTESIAN_POINT ( 'NONE',  ( 49.87745787838511546, 19.39798257748411814, 96.85918321014275989 ) ) ;
#557 = DIRECTION ( 'NONE',  ( -1.000000000000000000, 0.000000000000000000, 0.000000000000000000 ) ) ;
#558 = DIRECTION ( 'NONE',  ( -0.000000000000000000, 0.000000000000000000, 1.000000000000000000 ) ) ;
#559 = CIRCLE ( 'NONE', #454, 54.00000000000000000 ) ;
#560 =( NAMED_UNIT ( * ) PLANE_ANGLE_UNIT ( ) SI_UNIT ( $, .RADIAN. ) );
#561 = CARTESIAN_POINT ( 'NONE',  ( 49.93334973348815709, 20.55871066952301973, 97.00000000000000000 ) ) ;
#562 = CARTESIAN_POINT ( 'NONE',  ( 0.000000000000000000, -59.29999999999999716, 100.0000000000000000 ) ) ;
#563 = DIRECTION ( 'NONE',  ( 0.000000000000000000, 0.000000000000000000, 1.000000000000000000 ) ) ;
#564 = DIRECTION ( 'NONE',  ( -1.000000000000000000, 0.000000000000000000, 0.000000000000000000 ) ) ;
#565 = ADVANCED_FACE ( 'NONE', ( #497 ), #99, .F. ) ;
#566 = CARTESIAN_POINT ( 'NONE',  ( 65.72661686996866592, 16.94652238786497378, 100.0000000000000000 ) ) ;
#567 = DIRECTION ( 'NONE',  ( -1.000000000000000000, 0.000000000000000000, 0.000000000000000000 ) ) ;
#568 = CARTESIAN_POINT ( 'NONE',  ( 49.93334973348814998, 20.55871066952301263, 100.0000000000000000 ) ) ;
#569 = FACE_BOUND ( 'NONE', #15, .T. ) ;
#570 = DIRECTION ( 'NONE',  ( 0.000000000000000000, -0.000000000000000000, -1.000000000000000000 ) ) ;
#571 = APPLICATION_CONTEXT ( 'automotive_design' ) ;
#572 = ORIENTED_EDGE ( 'NONE', *, *, #226, .F. ) ;
#573 = AXIS2_PLACEMENT_3D ( 'NONE', #285, #47, #10 ) ;
#574 = AXIS2_PLACEMENT_3D ( 'NONE', #33, #467, #427 ) ;
ENDSEC;
END-ISO-10303-21;
